%TF.GenerationSoftware,KiCad,Pcbnew,10.0.6*%
%TF.CreationDate,2026-09-23T10:51:56+02:00*%
%TF.ProjectId,FanCtrl3-Pro,46616e43-7472-46c3-932d-50726f2e6b69,1.0*%
%TF.SameCoordinates,Original*%
%TF.FileFunction,Paste,Top*%
%TF.FilePolarity,Positive*%
%FSLAX46Y46*%
G04 Gerber Fmt 4.6, Leading zero omitted, Abs format (unit mm)*
G04 Created by KiCad (PCBNEW 10.0.6) date 2026-09-23 10:51:56*
%MOMM*%
%LPD*%
G01*
G04 APERTURE LIST*
G04 Aperture macros list*
%AMRoundRect*
0 Rectangle with rounded corners*
0 $1 Rounding radius*
0 $2 $3 $4 $5 $6 $7 $8 $9 X,Y pos of 4 corners*
0 Add a 4 corners polygon primitive as box body*
4,1,4,$2,$3,$4,$5,$6,$7,$8,$9,$2,$3,0*
0 Add four circle primitives for the rounded corners*
1,1,$1+$1,$2,$3*
1,1,$1+$1,$4,$5*
1,1,$1+$1,$6,$7*
1,1,$1+$1,$8,$9*
0 Add four rect primitives between the rounded corners*
20,1,$1+$1,$2,$3,$4,$5,0*
20,1,$1+$1,$4,$5,$6,$7,0*
20,1,$1+$1,$6,$7,$8,$9,0*
20,1,$1+$1,$8,$9,$2,$3,0*%
G04 Aperture macros list end*
%ADD10RoundRect,0.250000X0.450000X-0.350000X0.450000X0.350000X-0.450000X0.350000X-0.450000X-0.350000X0*%
%ADD11RoundRect,0.162500X0.617500X0.162500X-0.617500X0.162500X-0.617500X-0.162500X0.617500X-0.162500X0*%
%ADD12RoundRect,0.162500X-0.617500X-0.162500X0.617500X-0.162500X0.617500X0.162500X-0.617500X0.162500X0*%
%ADD13RoundRect,0.200000X0.200000X-0.750000X0.200000X0.750000X-0.200000X0.750000X-0.200000X-0.750000X0*%
%ADD14RoundRect,0.249999X-0.450001X-1.850001X0.450001X-1.850001X0.450001X1.850001X-0.450001X1.850001X0*%
%ADD15RoundRect,0.250000X0.475000X-0.337500X0.475000X0.337500X-0.475000X0.337500X-0.475000X-0.337500X0*%
%ADD16RoundRect,0.250000X0.650000X-0.412500X0.650000X0.412500X-0.650000X0.412500X-0.650000X-0.412500X0*%
%ADD17R,2.200000X3.800000*%
%ADD18R,3.800000X2.200000*%
%ADD19RoundRect,0.250000X-0.350000X-0.450000X0.350000X-0.450000X0.350000X0.450000X-0.350000X0.450000X0*%
%ADD20RoundRect,0.250000X1.500000X0.650000X-1.500000X0.650000X-1.500000X-0.650000X1.500000X-0.650000X0*%
G04 APERTURE END LIST*
D10*
%TO.C,R11*%
X127500000Y-138500000D03*
X127500000Y-136500000D03*
%TD*%
D11*
%TO.C,U3*%
X172350000Y-108950000D03*
X172350000Y-108000000D03*
X172350000Y-107050000D03*
X169650000Y-107050000D03*
X169650000Y-108950000D03*
%TD*%
D10*
%TO.C,R15*%
X146000000Y-138500000D03*
X146000000Y-136500000D03*
%TD*%
%TO.C,R13*%
X118000000Y-138500000D03*
X118000000Y-136500000D03*
%TD*%
D12*
%TO.C,U2*%
X157150000Y-107050000D03*
X157150000Y-108000000D03*
X157150000Y-108950000D03*
X159850000Y-108950000D03*
X159850000Y-108000000D03*
X159850000Y-107050000D03*
%TD*%
D10*
%TO.C,R12*%
X141500000Y-138500000D03*
X141500000Y-136500000D03*
%TD*%
D13*
%TO.C,Q2*%
X131050000Y-145500000D03*
X132950000Y-145500000D03*
X132000000Y-142500000D03*
%TD*%
D14*
%TO.C,L1*%
X169150000Y-115500000D03*
X172850000Y-115500000D03*
%TD*%
D15*
%TO.C,C7*%
X154000000Y-151037500D03*
X154000000Y-148962500D03*
%TD*%
D16*
%TO.C,C4*%
X185500000Y-114062500D03*
X185500000Y-110937500D03*
%TD*%
D17*
%TO.C,U1*%
X101570000Y-130690000D03*
X104110000Y-130690000D03*
X106650000Y-130690000D03*
X109190000Y-130690000D03*
X111730000Y-130690000D03*
X114270000Y-130690000D03*
X116810000Y-130690000D03*
X119350000Y-130690000D03*
X121890000Y-130690000D03*
X124430000Y-130690000D03*
X126970000Y-130690000D03*
X129510000Y-130690000D03*
X132050000Y-130690000D03*
X134590000Y-130690000D03*
X137130000Y-130690000D03*
X139670000Y-130690000D03*
X142210000Y-130690000D03*
X144750000Y-130690000D03*
X147290000Y-130690000D03*
X149830000Y-130690000D03*
D18*
X150400000Y-123540000D03*
X150400000Y-121000000D03*
X150400000Y-118460000D03*
D17*
X101570000Y-111310000D03*
X104110000Y-111310000D03*
X106650000Y-111310000D03*
X109190000Y-111310000D03*
X111730000Y-111310000D03*
X114270000Y-111310000D03*
X116810000Y-111310000D03*
X119350000Y-111310000D03*
X121890000Y-111310000D03*
X124430000Y-111310000D03*
X126970000Y-111310000D03*
X129510000Y-111310000D03*
X132050000Y-111310000D03*
X134590000Y-111310000D03*
X137130000Y-111310000D03*
X139670000Y-111310000D03*
X142210000Y-111310000D03*
X144750000Y-111310000D03*
X147290000Y-111310000D03*
X149830000Y-111310000D03*
%TD*%
D15*
%TO.C,C3*%
X180500000Y-108537500D03*
X180500000Y-106462500D03*
%TD*%
D16*
%TO.C,C5*%
X185500000Y-120062500D03*
X185500000Y-116937500D03*
%TD*%
D13*
%TO.C,Q3*%
X145050000Y-145500000D03*
X146950000Y-145500000D03*
X146000000Y-142500000D03*
%TD*%
D19*
%TO.C,R4*%
X165500000Y-107000000D03*
X167500000Y-107000000D03*
%TD*%
D10*
%TO.C,R1*%
X163000000Y-113000000D03*
X163000000Y-111000000D03*
%TD*%
%TO.C,R7*%
X113500000Y-145000000D03*
X113500000Y-143000000D03*
%TD*%
D19*
%TO.C,R6*%
X176000000Y-110000000D03*
X178000000Y-110000000D03*
%TD*%
D10*
%TO.C,R8*%
X127500000Y-145000000D03*
X127500000Y-143000000D03*
%TD*%
D19*
%TO.C,R5*%
X176000000Y-105000000D03*
X178000000Y-105000000D03*
%TD*%
D16*
%TO.C,C2*%
X166000000Y-114562500D03*
X166000000Y-111437500D03*
%TD*%
D10*
%TO.C,R2*%
X154500000Y-115500000D03*
X154500000Y-113500000D03*
%TD*%
D20*
%TO.C,D1*%
X181500000Y-115500000D03*
X176500000Y-115500000D03*
%TD*%
D10*
%TO.C,R14*%
X132000000Y-138500000D03*
X132000000Y-136500000D03*
%TD*%
%TO.C,R16*%
X172000000Y-147000000D03*
X172000000Y-145000000D03*
%TD*%
%TO.C,R10*%
X113500000Y-138500000D03*
X113500000Y-136500000D03*
%TD*%
%TO.C,R9*%
X141500000Y-145000000D03*
X141500000Y-143000000D03*
%TD*%
D15*
%TO.C,C1*%
X154000000Y-109037500D03*
X154000000Y-106962500D03*
%TD*%
D13*
%TO.C,Q1*%
X117050000Y-145500000D03*
X118950000Y-145500000D03*
X118000000Y-142500000D03*
%TD*%
D10*
%TO.C,R3*%
X157500000Y-115500000D03*
X157500000Y-113500000D03*
%TD*%
M02*
