M48
; DRILL file KiCad 10.0.6 date 2026-09-23T10:51:57
; FORMAT={-:-/ absolute / metric / decimal}
; #@! TF.CreationDate,2026-09-23T10:51:57+02:00
; #@! TF.GenerationSoftware,Kicad,Pcbnew,10.0.6
; #@! TF.FileFunction,Plated,1,2,PTH
FMAT,2
METRIC
; #@! TA.AperFunction,Plated,PTH,ViaDrill
T1C0.300
; #@! TA.AperFunction,Plated,PTH,ComponentDrill
T2C0.800
; #@! TA.AperFunction,Plated,PTH,ComponentDrill
T3C1.190
; #@! TA.AperFunction,Plated,PTH,ComponentDrill
T4C1.200
%
G90
G05
T1
X101.5Y-101.5
X102.0Y-108.0
X102.0Y-138.0
X102.0Y-144.0
X102.0Y-150.0
X106.7Y-109.2
X106.7Y-132.8
X108.0Y-102.0
X108.0Y-144.0
X108.0Y-150.0
X108.5Y-137.5
X111.0Y-112.6
X111.0Y-134.5
X113.5Y-141.9
X113.8Y-135.2
X114.0Y-102.0
X114.0Y-150.0
X114.8Y-134.2
X118.0Y-132.1
X118.9Y-140.2
X119.3Y-132.8
X119.9Y-145.5
X120.0Y-102.0
X120.0Y-150.0
X120.0Y-156.0
X120.2Y-134.2
X121.2Y-133.2
X121.9Y-133.9
X123.6Y-135.6
X125.6Y-132.0
X126.0Y-102.0
X126.0Y-150.0
X127.5Y-141.9
X128.1Y-131.7
X128.2Y-132.6
X130.8Y-139.3
X131.0Y-142.5
X131.5Y-134.2
X131.7Y-139.9
X132.0Y-102.0
X132.0Y-145.5
X132.0Y-150.0
X132.1Y-109.2
X132.1Y-132.8
X132.6Y-139.7
X137.5Y-144.5
X138.0Y-102.0
X138.0Y-138.0
X138.0Y-150.0
X141.5Y-141.9
X144.0Y-102.0
X144.2Y-137.7
X144.7Y-109.2
X144.7Y-132.8
X145.3Y-134.8
X146.0Y-145.5
X150.0Y-102.0
X150.0Y-107.5
X150.0Y-144.0
X150.0Y-150.0
X150.0Y-156.0
X150.5Y-137.5
X154.0Y-105.8
X154.0Y-121.0
X154.0Y-147.8
X155.0Y-122.0
X155.8Y-108.0
X156.0Y-102.0
X156.0Y-126.0
X156.0Y-132.0
X156.0Y-138.0
X156.0Y-156.0
X156.5Y-143.5
X157.6Y-109.0
X159.2Y-110.7
X162.0Y-102.0
X162.0Y-114.5
X162.0Y-120.0
X162.0Y-126.0
X162.0Y-132.0
X162.0Y-143.5
X162.0Y-156.0
X162.5Y-108.5
X163.0Y-109.9
X166.0Y-112.6
X167.6Y-145.4
X168.0Y-102.0
X168.0Y-120.0
X168.0Y-126.0
X168.0Y-132.0
X168.0Y-138.0
X168.0Y-150.0
X168.0Y-156.0
X168.3Y-143.0
X168.5Y-144.0
X168.5Y-145.4
X171.0Y-108.0
X174.0Y-102.0
X174.0Y-120.0
X174.0Y-126.0
X174.0Y-132.0
X174.0Y-144.0
X174.5Y-113.5
X174.5Y-138.5
X179.1Y-110.0
X180.0Y-102.0
X180.0Y-120.0
X180.0Y-126.0
X180.0Y-138.0
X180.0Y-144.0
X180.0Y-150.0
X180.5Y-132.5
X185.5Y-112.1
X185.5Y-118.1
X186.0Y-108.0
X186.0Y-126.0
X186.0Y-132.0
X186.0Y-138.0
X186.0Y-144.0
X186.0Y-150.0
T2
X160.0Y-150.0
X162.5Y-150.0
T3
X109.0Y-155.0
X111.54Y-155.0
X114.08Y-155.0
X116.62Y-155.0
X123.0Y-155.0
X125.54Y-155.0
X128.08Y-155.0
X130.62Y-155.0
X137.0Y-155.0
X139.54Y-155.0
X142.08Y-155.0
X144.62Y-155.0
T4
X174.0Y-155.0
X176.54Y-155.0
X179.08Y-155.0
M30
