%TF.GenerationSoftware,KiCad,Pcbnew,10.0.6*%
%TF.CreationDate,2026-09-23T10:51:56+02:00*%
%TF.ProjectId,FanCtrl3-Pro,46616e43-7472-46c3-932d-50726f2e6b69,1.0*%
%TF.SameCoordinates,Original*%
%TF.FileFunction,Soldermask,Bot*%
%TF.FilePolarity,Negative*%
%FSLAX46Y46*%
G04 Gerber Fmt 4.6, Leading zero omitted, Abs format (unit mm)*
G04 Created by KiCad (PCBNEW 10.0.6) date 2026-09-23 10:51:56*
%MOMM*%
%LPD*%
G01*
G04 APERTURE LIST*
G04 APERTURE END LIST*
G36*
X103873513Y-154944208D02*
G01*
X104112293Y-155021793D01*
X104335998Y-155135776D01*
X104539117Y-155283350D01*
X104716650Y-155460883D01*
X104864224Y-155664002D01*
X104978207Y-155887707D01*
X105055792Y-156126487D01*
X105095068Y-156374465D01*
X105095068Y-156625535D01*
X105055792Y-156873513D01*
X104978207Y-157112293D01*
X104864224Y-157335998D01*
X104716650Y-157539117D01*
X104539117Y-157716650D01*
X104335998Y-157864224D01*
X104112293Y-157978207D01*
X103873513Y-158055792D01*
X103625535Y-158095068D01*
X103374465Y-158095068D01*
X103126487Y-158055792D01*
X102887707Y-157978207D01*
X102664002Y-157864224D01*
X102460883Y-157716650D01*
X102283350Y-157539117D01*
X102135776Y-157335998D01*
X102021793Y-157112293D01*
X101944208Y-156873513D01*
X101904932Y-156625535D01*
X101904932Y-156374465D01*
X101944208Y-156126487D01*
X102021793Y-155887707D01*
X102135776Y-155664002D01*
X102283350Y-155460883D01*
X102460883Y-155283350D01*
X102664002Y-155135776D01*
X102887707Y-155021793D01*
X103126487Y-154944208D01*
X103374465Y-154904932D01*
X103625535Y-154904932D01*
X103873513Y-154944208D01*
G37*
G36*
X186873513Y-154944208D02*
G01*
X187112293Y-155021793D01*
X187335998Y-155135776D01*
X187539117Y-155283350D01*
X187716650Y-155460883D01*
X187864224Y-155664002D01*
X187978207Y-155887707D01*
X188055792Y-156126487D01*
X188095068Y-156374465D01*
X188095068Y-156625535D01*
X188055792Y-156873513D01*
X187978207Y-157112293D01*
X187864224Y-157335998D01*
X187716650Y-157539117D01*
X187539117Y-157716650D01*
X187335998Y-157864224D01*
X187112293Y-157978207D01*
X186873513Y-158055792D01*
X186625535Y-158095068D01*
X186374465Y-158095068D01*
X186126487Y-158055792D01*
X185887707Y-157978207D01*
X185664002Y-157864224D01*
X185460883Y-157716650D01*
X185283350Y-157539117D01*
X185135776Y-157335998D01*
X185021793Y-157112293D01*
X184944208Y-156873513D01*
X184904932Y-156625535D01*
X184904932Y-156374465D01*
X184944208Y-156126487D01*
X185021793Y-155887707D01*
X185135776Y-155664002D01*
X185283350Y-155460883D01*
X185460883Y-155283350D01*
X185664002Y-155135776D01*
X185887707Y-155021793D01*
X186126487Y-154944208D01*
X186374465Y-154904932D01*
X186625535Y-154904932D01*
X186873513Y-154944208D01*
G37*
G36*
X109624047Y-153905805D02*
G01*
X109675408Y-153911764D01*
X109692954Y-153919511D01*
X109715671Y-153924030D01*
X109739991Y-153940280D01*
X109760793Y-153949465D01*
X109775000Y-153963672D01*
X109796777Y-153978223D01*
X109811327Y-153999999D01*
X109825534Y-154014206D01*
X109834718Y-154035006D01*
X109850970Y-154059329D01*
X109855489Y-154082048D01*
X109863235Y-154099591D01*
X109869192Y-154150940D01*
X109870000Y-154155000D01*
X109870000Y-155845000D01*
X109869192Y-155849059D01*
X109863235Y-155900408D01*
X109855489Y-155917950D01*
X109850970Y-155940671D01*
X109834716Y-155964995D01*
X109825534Y-155985793D01*
X109811329Y-155999997D01*
X109796777Y-156021777D01*
X109774997Y-156036329D01*
X109760793Y-156050534D01*
X109739995Y-156059716D01*
X109715671Y-156075970D01*
X109692950Y-156080489D01*
X109675408Y-156088235D01*
X109624061Y-156094192D01*
X109620000Y-156095000D01*
X108380000Y-156095000D01*
X108375941Y-156094192D01*
X108324591Y-156088235D01*
X108307048Y-156080489D01*
X108284329Y-156075970D01*
X108260006Y-156059718D01*
X108239206Y-156050534D01*
X108224999Y-156036327D01*
X108203223Y-156021777D01*
X108188671Y-155999999D01*
X108174465Y-155985793D01*
X108165280Y-155964991D01*
X108149030Y-155940671D01*
X108144511Y-155917954D01*
X108136764Y-155900408D01*
X108130805Y-155849049D01*
X108130000Y-155845000D01*
X108130000Y-154155000D01*
X108130804Y-154150953D01*
X108136764Y-154099591D01*
X108144511Y-154082043D01*
X108149030Y-154059329D01*
X108165278Y-154035010D01*
X108174465Y-154014206D01*
X108188674Y-153999996D01*
X108203223Y-153978223D01*
X108224996Y-153963674D01*
X108239206Y-153949465D01*
X108260010Y-153940278D01*
X108284329Y-153924030D01*
X108307043Y-153919511D01*
X108324591Y-153911764D01*
X108375952Y-153905805D01*
X108380000Y-153905000D01*
X109620000Y-153905000D01*
X109624047Y-153905805D01*
G37*
G36*
X123624047Y-153905805D02*
G01*
X123675408Y-153911764D01*
X123692954Y-153919511D01*
X123715671Y-153924030D01*
X123739991Y-153940280D01*
X123760793Y-153949465D01*
X123775000Y-153963672D01*
X123796777Y-153978223D01*
X123811327Y-153999999D01*
X123825534Y-154014206D01*
X123834718Y-154035006D01*
X123850970Y-154059329D01*
X123855489Y-154082048D01*
X123863235Y-154099591D01*
X123869192Y-154150940D01*
X123870000Y-154155000D01*
X123870000Y-155845000D01*
X123869192Y-155849059D01*
X123863235Y-155900408D01*
X123855489Y-155917950D01*
X123850970Y-155940671D01*
X123834716Y-155964995D01*
X123825534Y-155985793D01*
X123811329Y-155999997D01*
X123796777Y-156021777D01*
X123774997Y-156036329D01*
X123760793Y-156050534D01*
X123739995Y-156059716D01*
X123715671Y-156075970D01*
X123692950Y-156080489D01*
X123675408Y-156088235D01*
X123624061Y-156094192D01*
X123620000Y-156095000D01*
X122380000Y-156095000D01*
X122375941Y-156094192D01*
X122324591Y-156088235D01*
X122307048Y-156080489D01*
X122284329Y-156075970D01*
X122260006Y-156059718D01*
X122239206Y-156050534D01*
X122224999Y-156036327D01*
X122203223Y-156021777D01*
X122188671Y-155999999D01*
X122174465Y-155985793D01*
X122165280Y-155964991D01*
X122149030Y-155940671D01*
X122144511Y-155917954D01*
X122136764Y-155900408D01*
X122130805Y-155849049D01*
X122130000Y-155845000D01*
X122130000Y-154155000D01*
X122130804Y-154150953D01*
X122136764Y-154099591D01*
X122144511Y-154082043D01*
X122149030Y-154059329D01*
X122165278Y-154035010D01*
X122174465Y-154014206D01*
X122188674Y-153999996D01*
X122203223Y-153978223D01*
X122224996Y-153963674D01*
X122239206Y-153949465D01*
X122260010Y-153940278D01*
X122284329Y-153924030D01*
X122307043Y-153919511D01*
X122324591Y-153911764D01*
X122375952Y-153905805D01*
X122380000Y-153905000D01*
X123620000Y-153905000D01*
X123624047Y-153905805D01*
G37*
G36*
X137624047Y-153905805D02*
G01*
X137675408Y-153911764D01*
X137692954Y-153919511D01*
X137715671Y-153924030D01*
X137739991Y-153940280D01*
X137760793Y-153949465D01*
X137775000Y-153963672D01*
X137796777Y-153978223D01*
X137811327Y-153999999D01*
X137825534Y-154014206D01*
X137834718Y-154035006D01*
X137850970Y-154059329D01*
X137855489Y-154082048D01*
X137863235Y-154099591D01*
X137869192Y-154150940D01*
X137870000Y-154155000D01*
X137870000Y-155845000D01*
X137869192Y-155849059D01*
X137863235Y-155900408D01*
X137855489Y-155917950D01*
X137850970Y-155940671D01*
X137834716Y-155964995D01*
X137825534Y-155985793D01*
X137811329Y-155999997D01*
X137796777Y-156021777D01*
X137774997Y-156036329D01*
X137760793Y-156050534D01*
X137739995Y-156059716D01*
X137715671Y-156075970D01*
X137692950Y-156080489D01*
X137675408Y-156088235D01*
X137624061Y-156094192D01*
X137620000Y-156095000D01*
X136380000Y-156095000D01*
X136375941Y-156094192D01*
X136324591Y-156088235D01*
X136307048Y-156080489D01*
X136284329Y-156075970D01*
X136260006Y-156059718D01*
X136239206Y-156050534D01*
X136224999Y-156036327D01*
X136203223Y-156021777D01*
X136188671Y-155999999D01*
X136174465Y-155985793D01*
X136165280Y-155964991D01*
X136149030Y-155940671D01*
X136144511Y-155917954D01*
X136136764Y-155900408D01*
X136130805Y-155849049D01*
X136130000Y-155845000D01*
X136130000Y-154155000D01*
X136130804Y-154150953D01*
X136136764Y-154099591D01*
X136144511Y-154082043D01*
X136149030Y-154059329D01*
X136165278Y-154035010D01*
X136174465Y-154014206D01*
X136188674Y-153999996D01*
X136203223Y-153978223D01*
X136224996Y-153963674D01*
X136239206Y-153949465D01*
X136260010Y-153940278D01*
X136284329Y-153924030D01*
X136307043Y-153919511D01*
X136324591Y-153911764D01*
X136375952Y-153905805D01*
X136380000Y-153905000D01*
X137620000Y-153905000D01*
X137624047Y-153905805D01*
G37*
G36*
X111792548Y-153942462D02*
G01*
X111950115Y-154007729D01*
X112091922Y-154102481D01*
X112212519Y-154223078D01*
X112307271Y-154364885D01*
X112372538Y-154522452D01*
X112405811Y-154689725D01*
X112410000Y-154775000D01*
X112410000Y-155225000D01*
X112405811Y-155310275D01*
X112372538Y-155477548D01*
X112307271Y-155635115D01*
X112212519Y-155776922D01*
X112091922Y-155897519D01*
X111950115Y-155992271D01*
X111792548Y-156057538D01*
X111625275Y-156090811D01*
X111454725Y-156090811D01*
X111287452Y-156057538D01*
X111129885Y-155992271D01*
X110988078Y-155897519D01*
X110867481Y-155776922D01*
X110772729Y-155635115D01*
X110707462Y-155477548D01*
X110674189Y-155310275D01*
X110670000Y-155225000D01*
X110670000Y-154775000D01*
X110674189Y-154689725D01*
X110707462Y-154522452D01*
X110772729Y-154364885D01*
X110867481Y-154223078D01*
X110988078Y-154102481D01*
X111129885Y-154007729D01*
X111287452Y-153942462D01*
X111454725Y-153909189D01*
X111625275Y-153909189D01*
X111792548Y-153942462D01*
G37*
G36*
X114332548Y-153942462D02*
G01*
X114490115Y-154007729D01*
X114631922Y-154102481D01*
X114752519Y-154223078D01*
X114847271Y-154364885D01*
X114912538Y-154522452D01*
X114945811Y-154689725D01*
X114950000Y-154775000D01*
X114950000Y-155225000D01*
X114945811Y-155310275D01*
X114912538Y-155477548D01*
X114847271Y-155635115D01*
X114752519Y-155776922D01*
X114631922Y-155897519D01*
X114490115Y-155992271D01*
X114332548Y-156057538D01*
X114165275Y-156090811D01*
X113994725Y-156090811D01*
X113827452Y-156057538D01*
X113669885Y-155992271D01*
X113528078Y-155897519D01*
X113407481Y-155776922D01*
X113312729Y-155635115D01*
X113247462Y-155477548D01*
X113214189Y-155310275D01*
X113210000Y-155225000D01*
X113210000Y-154775000D01*
X113214189Y-154689725D01*
X113247462Y-154522452D01*
X113312729Y-154364885D01*
X113407481Y-154223078D01*
X113528078Y-154102481D01*
X113669885Y-154007729D01*
X113827452Y-153942462D01*
X113994725Y-153909189D01*
X114165275Y-153909189D01*
X114332548Y-153942462D01*
G37*
G36*
X116872548Y-153942462D02*
G01*
X117030115Y-154007729D01*
X117171922Y-154102481D01*
X117292519Y-154223078D01*
X117387271Y-154364885D01*
X117452538Y-154522452D01*
X117485811Y-154689725D01*
X117490000Y-154775000D01*
X117490000Y-155225000D01*
X117485811Y-155310275D01*
X117452538Y-155477548D01*
X117387271Y-155635115D01*
X117292519Y-155776922D01*
X117171922Y-155897519D01*
X117030115Y-155992271D01*
X116872548Y-156057538D01*
X116705275Y-156090811D01*
X116534725Y-156090811D01*
X116367452Y-156057538D01*
X116209885Y-155992271D01*
X116068078Y-155897519D01*
X115947481Y-155776922D01*
X115852729Y-155635115D01*
X115787462Y-155477548D01*
X115754189Y-155310275D01*
X115750000Y-155225000D01*
X115750000Y-154775000D01*
X115754189Y-154689725D01*
X115787462Y-154522452D01*
X115852729Y-154364885D01*
X115947481Y-154223078D01*
X116068078Y-154102481D01*
X116209885Y-154007729D01*
X116367452Y-153942462D01*
X116534725Y-153909189D01*
X116705275Y-153909189D01*
X116872548Y-153942462D01*
G37*
G36*
X125792548Y-153942462D02*
G01*
X125950115Y-154007729D01*
X126091922Y-154102481D01*
X126212519Y-154223078D01*
X126307271Y-154364885D01*
X126372538Y-154522452D01*
X126405811Y-154689725D01*
X126410000Y-154775000D01*
X126410000Y-155225000D01*
X126405811Y-155310275D01*
X126372538Y-155477548D01*
X126307271Y-155635115D01*
X126212519Y-155776922D01*
X126091922Y-155897519D01*
X125950115Y-155992271D01*
X125792548Y-156057538D01*
X125625275Y-156090811D01*
X125454725Y-156090811D01*
X125287452Y-156057538D01*
X125129885Y-155992271D01*
X124988078Y-155897519D01*
X124867481Y-155776922D01*
X124772729Y-155635115D01*
X124707462Y-155477548D01*
X124674189Y-155310275D01*
X124670000Y-155225000D01*
X124670000Y-154775000D01*
X124674189Y-154689725D01*
X124707462Y-154522452D01*
X124772729Y-154364885D01*
X124867481Y-154223078D01*
X124988078Y-154102481D01*
X125129885Y-154007729D01*
X125287452Y-153942462D01*
X125454725Y-153909189D01*
X125625275Y-153909189D01*
X125792548Y-153942462D01*
G37*
G36*
X128332548Y-153942462D02*
G01*
X128490115Y-154007729D01*
X128631922Y-154102481D01*
X128752519Y-154223078D01*
X128847271Y-154364885D01*
X128912538Y-154522452D01*
X128945811Y-154689725D01*
X128950000Y-154775000D01*
X128950000Y-155225000D01*
X128945811Y-155310275D01*
X128912538Y-155477548D01*
X128847271Y-155635115D01*
X128752519Y-155776922D01*
X128631922Y-155897519D01*
X128490115Y-155992271D01*
X128332548Y-156057538D01*
X128165275Y-156090811D01*
X127994725Y-156090811D01*
X127827452Y-156057538D01*
X127669885Y-155992271D01*
X127528078Y-155897519D01*
X127407481Y-155776922D01*
X127312729Y-155635115D01*
X127247462Y-155477548D01*
X127214189Y-155310275D01*
X127210000Y-155225000D01*
X127210000Y-154775000D01*
X127214189Y-154689725D01*
X127247462Y-154522452D01*
X127312729Y-154364885D01*
X127407481Y-154223078D01*
X127528078Y-154102481D01*
X127669885Y-154007729D01*
X127827452Y-153942462D01*
X127994725Y-153909189D01*
X128165275Y-153909189D01*
X128332548Y-153942462D01*
G37*
G36*
X130872548Y-153942462D02*
G01*
X131030115Y-154007729D01*
X131171922Y-154102481D01*
X131292519Y-154223078D01*
X131387271Y-154364885D01*
X131452538Y-154522452D01*
X131485811Y-154689725D01*
X131490000Y-154775000D01*
X131490000Y-155225000D01*
X131485811Y-155310275D01*
X131452538Y-155477548D01*
X131387271Y-155635115D01*
X131292519Y-155776922D01*
X131171922Y-155897519D01*
X131030115Y-155992271D01*
X130872548Y-156057538D01*
X130705275Y-156090811D01*
X130534725Y-156090811D01*
X130367452Y-156057538D01*
X130209885Y-155992271D01*
X130068078Y-155897519D01*
X129947481Y-155776922D01*
X129852729Y-155635115D01*
X129787462Y-155477548D01*
X129754189Y-155310275D01*
X129750000Y-155225000D01*
X129750000Y-154775000D01*
X129754189Y-154689725D01*
X129787462Y-154522452D01*
X129852729Y-154364885D01*
X129947481Y-154223078D01*
X130068078Y-154102481D01*
X130209885Y-154007729D01*
X130367452Y-153942462D01*
X130534725Y-153909189D01*
X130705275Y-153909189D01*
X130872548Y-153942462D01*
G37*
G36*
X139792548Y-153942462D02*
G01*
X139950115Y-154007729D01*
X140091922Y-154102481D01*
X140212519Y-154223078D01*
X140307271Y-154364885D01*
X140372538Y-154522452D01*
X140405811Y-154689725D01*
X140410000Y-154775000D01*
X140410000Y-155225000D01*
X140405811Y-155310275D01*
X140372538Y-155477548D01*
X140307271Y-155635115D01*
X140212519Y-155776922D01*
X140091922Y-155897519D01*
X139950115Y-155992271D01*
X139792548Y-156057538D01*
X139625275Y-156090811D01*
X139454725Y-156090811D01*
X139287452Y-156057538D01*
X139129885Y-155992271D01*
X138988078Y-155897519D01*
X138867481Y-155776922D01*
X138772729Y-155635115D01*
X138707462Y-155477548D01*
X138674189Y-155310275D01*
X138670000Y-155225000D01*
X138670000Y-154775000D01*
X138674189Y-154689725D01*
X138707462Y-154522452D01*
X138772729Y-154364885D01*
X138867481Y-154223078D01*
X138988078Y-154102481D01*
X139129885Y-154007729D01*
X139287452Y-153942462D01*
X139454725Y-153909189D01*
X139625275Y-153909189D01*
X139792548Y-153942462D01*
G37*
G36*
X142332548Y-153942462D02*
G01*
X142490115Y-154007729D01*
X142631922Y-154102481D01*
X142752519Y-154223078D01*
X142847271Y-154364885D01*
X142912538Y-154522452D01*
X142945811Y-154689725D01*
X142950000Y-154775000D01*
X142950000Y-155225000D01*
X142945811Y-155310275D01*
X142912538Y-155477548D01*
X142847271Y-155635115D01*
X142752519Y-155776922D01*
X142631922Y-155897519D01*
X142490115Y-155992271D01*
X142332548Y-156057538D01*
X142165275Y-156090811D01*
X141994725Y-156090811D01*
X141827452Y-156057538D01*
X141669885Y-155992271D01*
X141528078Y-155897519D01*
X141407481Y-155776922D01*
X141312729Y-155635115D01*
X141247462Y-155477548D01*
X141214189Y-155310275D01*
X141210000Y-155225000D01*
X141210000Y-154775000D01*
X141214189Y-154689725D01*
X141247462Y-154522452D01*
X141312729Y-154364885D01*
X141407481Y-154223078D01*
X141528078Y-154102481D01*
X141669885Y-154007729D01*
X141827452Y-153942462D01*
X141994725Y-153909189D01*
X142165275Y-153909189D01*
X142332548Y-153942462D01*
G37*
G36*
X144872548Y-153942462D02*
G01*
X145030115Y-154007729D01*
X145171922Y-154102481D01*
X145292519Y-154223078D01*
X145387271Y-154364885D01*
X145452538Y-154522452D01*
X145485811Y-154689725D01*
X145490000Y-154775000D01*
X145490000Y-155225000D01*
X145485811Y-155310275D01*
X145452538Y-155477548D01*
X145387271Y-155635115D01*
X145292519Y-155776922D01*
X145171922Y-155897519D01*
X145030115Y-155992271D01*
X144872548Y-156057538D01*
X144705275Y-156090811D01*
X144534725Y-156090811D01*
X144367452Y-156057538D01*
X144209885Y-155992271D01*
X144068078Y-155897519D01*
X143947481Y-155776922D01*
X143852729Y-155635115D01*
X143787462Y-155477548D01*
X143754189Y-155310275D01*
X143750000Y-155225000D01*
X143750000Y-154775000D01*
X143754189Y-154689725D01*
X143787462Y-154522452D01*
X143852729Y-154364885D01*
X143947481Y-154223078D01*
X144068078Y-154102481D01*
X144209885Y-154007729D01*
X144367452Y-153942462D01*
X144534725Y-153909189D01*
X144705275Y-153909189D01*
X144872548Y-153942462D01*
G37*
G36*
X174754047Y-154000805D02*
G01*
X174805408Y-154006764D01*
X174822954Y-154014511D01*
X174845671Y-154019030D01*
X174869991Y-154035280D01*
X174890793Y-154044465D01*
X174905000Y-154058672D01*
X174926777Y-154073223D01*
X174941327Y-154094999D01*
X174955534Y-154109206D01*
X174964718Y-154130006D01*
X174980970Y-154154329D01*
X174985489Y-154177048D01*
X174993235Y-154194591D01*
X174999192Y-154245940D01*
X175000000Y-154250000D01*
X175000000Y-155750000D01*
X174999192Y-155754059D01*
X174993235Y-155805408D01*
X174985489Y-155822950D01*
X174980970Y-155845671D01*
X174964716Y-155869995D01*
X174955534Y-155890793D01*
X174941329Y-155904997D01*
X174926777Y-155926777D01*
X174904997Y-155941329D01*
X174890793Y-155955534D01*
X174869995Y-155964716D01*
X174845671Y-155980970D01*
X174822950Y-155985489D01*
X174805408Y-155993235D01*
X174754061Y-155999192D01*
X174750000Y-156000000D01*
X173250000Y-156000000D01*
X173245941Y-155999192D01*
X173194591Y-155993235D01*
X173177048Y-155985489D01*
X173154329Y-155980970D01*
X173130006Y-155964718D01*
X173109206Y-155955534D01*
X173094999Y-155941327D01*
X173073223Y-155926777D01*
X173058672Y-155905000D01*
X173044465Y-155890793D01*
X173035280Y-155869991D01*
X173019030Y-155845671D01*
X173014511Y-155822954D01*
X173006764Y-155805408D01*
X173000805Y-155754049D01*
X173000000Y-155750000D01*
X173000000Y-154250000D01*
X173000804Y-154245953D01*
X173006764Y-154194591D01*
X173014511Y-154177043D01*
X173019030Y-154154329D01*
X173035278Y-154130010D01*
X173044465Y-154109206D01*
X173058674Y-154094996D01*
X173073223Y-154073223D01*
X173094996Y-154058674D01*
X173109206Y-154044465D01*
X173130010Y-154035278D01*
X173154329Y-154019030D01*
X173177043Y-154014511D01*
X173194591Y-154006764D01*
X173245952Y-154000805D01*
X173250000Y-154000000D01*
X174750000Y-154000000D01*
X174754047Y-154000805D01*
G37*
G36*
X176830285Y-154043060D02*
G01*
X177011397Y-154118079D01*
X177174393Y-154226990D01*
X177313010Y-154365607D01*
X177421921Y-154528603D01*
X177496940Y-154709715D01*
X177535185Y-154901983D01*
X177535185Y-155098017D01*
X177496940Y-155290285D01*
X177421921Y-155471397D01*
X177313010Y-155634393D01*
X177174393Y-155773010D01*
X177011397Y-155881921D01*
X176830285Y-155956940D01*
X176638017Y-155995185D01*
X176441983Y-155995185D01*
X176249715Y-155956940D01*
X176068603Y-155881921D01*
X175905607Y-155773010D01*
X175766990Y-155634393D01*
X175658079Y-155471397D01*
X175583060Y-155290285D01*
X175544815Y-155098017D01*
X175544815Y-154901983D01*
X175583060Y-154709715D01*
X175658079Y-154528603D01*
X175766990Y-154365607D01*
X175905607Y-154226990D01*
X176068603Y-154118079D01*
X176249715Y-154043060D01*
X176441983Y-154004815D01*
X176638017Y-154004815D01*
X176830285Y-154043060D01*
G37*
G36*
X179370285Y-154043060D02*
G01*
X179551397Y-154118079D01*
X179714393Y-154226990D01*
X179853010Y-154365607D01*
X179961921Y-154528603D01*
X180036940Y-154709715D01*
X180075185Y-154901983D01*
X180075185Y-155098017D01*
X180036940Y-155290285D01*
X179961921Y-155471397D01*
X179853010Y-155634393D01*
X179714393Y-155773010D01*
X179551397Y-155881921D01*
X179370285Y-155956940D01*
X179178017Y-155995185D01*
X178981983Y-155995185D01*
X178789715Y-155956940D01*
X178608603Y-155881921D01*
X178445607Y-155773010D01*
X178306990Y-155634393D01*
X178198079Y-155471397D01*
X178123060Y-155290285D01*
X178084815Y-155098017D01*
X178084815Y-154901983D01*
X178123060Y-154709715D01*
X178198079Y-154528603D01*
X178306990Y-154365607D01*
X178445607Y-154226990D01*
X178608603Y-154118079D01*
X178789715Y-154043060D01*
X178981983Y-154004815D01*
X179178017Y-154004815D01*
X179370285Y-154043060D01*
G37*
G36*
X160554047Y-149200805D02*
G01*
X160605408Y-149206764D01*
X160622954Y-149214511D01*
X160645671Y-149219030D01*
X160669991Y-149235280D01*
X160690793Y-149244465D01*
X160705000Y-149258672D01*
X160726777Y-149273223D01*
X160741327Y-149294999D01*
X160755534Y-149309206D01*
X160764718Y-149330006D01*
X160780970Y-149354329D01*
X160785489Y-149377048D01*
X160793235Y-149394591D01*
X160799192Y-149445940D01*
X160800000Y-149450000D01*
X160800000Y-150550000D01*
X160799192Y-150554059D01*
X160793235Y-150605408D01*
X160785489Y-150622950D01*
X160780970Y-150645671D01*
X160764716Y-150669995D01*
X160755534Y-150690793D01*
X160741329Y-150704997D01*
X160726777Y-150726777D01*
X160704997Y-150741329D01*
X160690793Y-150755534D01*
X160669995Y-150764716D01*
X160645671Y-150780970D01*
X160622950Y-150785489D01*
X160605408Y-150793235D01*
X160554061Y-150799192D01*
X160550000Y-150800000D01*
X159450000Y-150800000D01*
X159445941Y-150799192D01*
X159394591Y-150793235D01*
X159377048Y-150785489D01*
X159354329Y-150780970D01*
X159330006Y-150764718D01*
X159309206Y-150755534D01*
X159294999Y-150741327D01*
X159273223Y-150726777D01*
X159258672Y-150705000D01*
X159244465Y-150690793D01*
X159235280Y-150669991D01*
X159219030Y-150645671D01*
X159214511Y-150622954D01*
X159206764Y-150605408D01*
X159200805Y-150554049D01*
X159200000Y-150550000D01*
X159200000Y-149450000D01*
X159200804Y-149445953D01*
X159206764Y-149394591D01*
X159214511Y-149377043D01*
X159219030Y-149354329D01*
X159235278Y-149330010D01*
X159244465Y-149309206D01*
X159258674Y-149294996D01*
X159273223Y-149273223D01*
X159294996Y-149258674D01*
X159309206Y-149244465D01*
X159330010Y-149235278D01*
X159354329Y-149219030D01*
X159377043Y-149214511D01*
X159394591Y-149206764D01*
X159445952Y-149200805D01*
X159450000Y-149200000D01*
X160550000Y-149200000D01*
X160554047Y-149200805D01*
G37*
G36*
X162732228Y-149234448D02*
G01*
X162877117Y-149294463D01*
X163007515Y-149381592D01*
X163118408Y-149492485D01*
X163205537Y-149622883D01*
X163265552Y-149767772D01*
X163296148Y-149921586D01*
X163296148Y-150078414D01*
X163265552Y-150232228D01*
X163205537Y-150377117D01*
X163118408Y-150507515D01*
X163007515Y-150618408D01*
X162877117Y-150705537D01*
X162732228Y-150765552D01*
X162578414Y-150796148D01*
X162421586Y-150796148D01*
X162267772Y-150765552D01*
X162122883Y-150705537D01*
X161992485Y-150618408D01*
X161881592Y-150507515D01*
X161794463Y-150377117D01*
X161734448Y-150232228D01*
X161703852Y-150078414D01*
X161703852Y-149921586D01*
X161734448Y-149767772D01*
X161794463Y-149622883D01*
X161881592Y-149492485D01*
X161992485Y-149381592D01*
X162122883Y-149294463D01*
X162267772Y-149234448D01*
X162421586Y-149203852D01*
X162578414Y-149203852D01*
X162732228Y-149234448D01*
G37*
G36*
X101956790Y-122655393D02*
G01*
X102120952Y-122708733D01*
X102274748Y-122787096D01*
X102414393Y-122888553D01*
X102536447Y-123010607D01*
X102637904Y-123150252D01*
X102716267Y-123304048D01*
X102769607Y-123468210D01*
X102796609Y-123638695D01*
X102796609Y-123811305D01*
X102769607Y-123981790D01*
X102716267Y-124145952D01*
X102637904Y-124299748D01*
X102536447Y-124439393D01*
X102414393Y-124561447D01*
X102274748Y-124662904D01*
X102120952Y-124741267D01*
X101956790Y-124794607D01*
X101786305Y-124821609D01*
X101613695Y-124821609D01*
X101443210Y-124794607D01*
X101279048Y-124741267D01*
X101125252Y-124662904D01*
X100985607Y-124561447D01*
X100863553Y-124439393D01*
X100762096Y-124299748D01*
X100683733Y-124145952D01*
X100630393Y-123981790D01*
X100603391Y-123811305D01*
X100603391Y-123638695D01*
X100630393Y-123468210D01*
X100683733Y-123304048D01*
X100762096Y-123150252D01*
X100863553Y-123010607D01*
X100985607Y-122888553D01*
X101125252Y-122787096D01*
X101279048Y-122708733D01*
X101443210Y-122655393D01*
X101613695Y-122628391D01*
X101786305Y-122628391D01*
X101956790Y-122655393D01*
G37*
G36*
X104998513Y-122539830D02*
G01*
X105166042Y-122609223D01*
X105316814Y-122709965D01*
X105445035Y-122838186D01*
X105545777Y-122988958D01*
X105615170Y-123156487D01*
X105650546Y-123334334D01*
X105650546Y-123515666D01*
X105615170Y-123693513D01*
X105545777Y-123861042D01*
X105445035Y-124011814D01*
X105316814Y-124140035D01*
X105166042Y-124240777D01*
X104998513Y-124310170D01*
X104820666Y-124345546D01*
X104639334Y-124345546D01*
X104461487Y-124310170D01*
X104293958Y-124240777D01*
X104143186Y-124140035D01*
X104014965Y-124011814D01*
X103914223Y-123861042D01*
X103844830Y-123693513D01*
X103809454Y-123515666D01*
X103809454Y-123334334D01*
X103844830Y-123156487D01*
X103914223Y-122988958D01*
X104014965Y-122838186D01*
X104143186Y-122709965D01*
X104293958Y-122609223D01*
X104461487Y-122539830D01*
X104639334Y-122504454D01*
X104820666Y-122504454D01*
X104998513Y-122539830D01*
G37*
G36*
X104998513Y-117689830D02*
G01*
X105166042Y-117759223D01*
X105316814Y-117859965D01*
X105445035Y-117988186D01*
X105545777Y-118138958D01*
X105615170Y-118306487D01*
X105650546Y-118484334D01*
X105650546Y-118665666D01*
X105615170Y-118843513D01*
X105545777Y-119011042D01*
X105445035Y-119161814D01*
X105316814Y-119290035D01*
X105166042Y-119390777D01*
X104998513Y-119460170D01*
X104820666Y-119495546D01*
X104639334Y-119495546D01*
X104461487Y-119460170D01*
X104293958Y-119390777D01*
X104143186Y-119290035D01*
X104014965Y-119161814D01*
X103914223Y-119011042D01*
X103844830Y-118843513D01*
X103809454Y-118665666D01*
X103809454Y-118484334D01*
X103844830Y-118306487D01*
X103914223Y-118138958D01*
X104014965Y-117988186D01*
X104143186Y-117859965D01*
X104293958Y-117759223D01*
X104461487Y-117689830D01*
X104639334Y-117654454D01*
X104820666Y-117654454D01*
X104998513Y-117689830D01*
G37*
G36*
X101956790Y-117205393D02*
G01*
X102120952Y-117258733D01*
X102274748Y-117337096D01*
X102414393Y-117438553D01*
X102536447Y-117560607D01*
X102637904Y-117700252D01*
X102716267Y-117854048D01*
X102769607Y-118018210D01*
X102796609Y-118188695D01*
X102796609Y-118361305D01*
X102769607Y-118531790D01*
X102716267Y-118695952D01*
X102637904Y-118849748D01*
X102536447Y-118989393D01*
X102414393Y-119111447D01*
X102274748Y-119212904D01*
X102120952Y-119291267D01*
X101956790Y-119344607D01*
X101786305Y-119371609D01*
X101613695Y-119371609D01*
X101443210Y-119344607D01*
X101279048Y-119291267D01*
X101125252Y-119212904D01*
X100985607Y-119111447D01*
X100863553Y-118989393D01*
X100762096Y-118849748D01*
X100683733Y-118695952D01*
X100630393Y-118531790D01*
X100603391Y-118361305D01*
X100603391Y-118188695D01*
X100630393Y-118018210D01*
X100683733Y-117854048D01*
X100762096Y-117700252D01*
X100863553Y-117560607D01*
X100985607Y-117438553D01*
X101125252Y-117337096D01*
X101279048Y-117258733D01*
X101443210Y-117205393D01*
X101613695Y-117178391D01*
X101786305Y-117178391D01*
X101956790Y-117205393D01*
G37*
G36*
X103873513Y-101944208D02*
G01*
X104112293Y-102021793D01*
X104335998Y-102135776D01*
X104539117Y-102283350D01*
X104716650Y-102460883D01*
X104864224Y-102664002D01*
X104978207Y-102887707D01*
X105055792Y-103126487D01*
X105095068Y-103374465D01*
X105095068Y-103625535D01*
X105055792Y-103873513D01*
X104978207Y-104112293D01*
X104864224Y-104335998D01*
X104716650Y-104539117D01*
X104539117Y-104716650D01*
X104335998Y-104864224D01*
X104112293Y-104978207D01*
X103873513Y-105055792D01*
X103625535Y-105095068D01*
X103374465Y-105095068D01*
X103126487Y-105055792D01*
X102887707Y-104978207D01*
X102664002Y-104864224D01*
X102460883Y-104716650D01*
X102283350Y-104539117D01*
X102135776Y-104335998D01*
X102021793Y-104112293D01*
X101944208Y-103873513D01*
X101904932Y-103625535D01*
X101904932Y-103374465D01*
X101944208Y-103126487D01*
X102021793Y-102887707D01*
X102135776Y-102664002D01*
X102283350Y-102460883D01*
X102460883Y-102283350D01*
X102664002Y-102135776D01*
X102887707Y-102021793D01*
X103126487Y-101944208D01*
X103374465Y-101904932D01*
X103625535Y-101904932D01*
X103873513Y-101944208D01*
G37*
G36*
X186873513Y-101944208D02*
G01*
X187112293Y-102021793D01*
X187335998Y-102135776D01*
X187539117Y-102283350D01*
X187716650Y-102460883D01*
X187864224Y-102664002D01*
X187978207Y-102887707D01*
X188055792Y-103126487D01*
X188095068Y-103374465D01*
X188095068Y-103625535D01*
X188055792Y-103873513D01*
X187978207Y-104112293D01*
X187864224Y-104335998D01*
X187716650Y-104539117D01*
X187539117Y-104716650D01*
X187335998Y-104864224D01*
X187112293Y-104978207D01*
X186873513Y-105055792D01*
X186625535Y-105095068D01*
X186374465Y-105095068D01*
X186126487Y-105055792D01*
X185887707Y-104978207D01*
X185664002Y-104864224D01*
X185460883Y-104716650D01*
X185283350Y-104539117D01*
X185135776Y-104335998D01*
X185021793Y-104112293D01*
X184944208Y-103873513D01*
X184904932Y-103625535D01*
X184904932Y-103374465D01*
X184944208Y-103126487D01*
X185021793Y-102887707D01*
X185135776Y-102664002D01*
X185283350Y-102460883D01*
X185460883Y-102283350D01*
X185664002Y-102135776D01*
X185887707Y-102021793D01*
X186126487Y-101944208D01*
X186374465Y-101904932D01*
X186625535Y-101904932D01*
X186873513Y-101944208D01*
G37*
M02*
